<svg
   version="1.1"
   id="svg2415"
   width="268.23837"
   height="203.22725"
   xmlns:inkscape="http://www.inkscape.org/namespaces/inkscape"
   xmlns:sodipodi="http://sodipodi.sourceforge.net/DTD/sodipodi-0.dtd"
   xmlns="http://www.w3.org/2000/svg"
   xmlns:svg="http://www.w3.org/2000/svg">
  <defs
     id="defs2419" />
  <sodipodi:namedview
     id="namedview2417"
     pagecolor="#505050"
     bordercolor="#eeeeee"
     borderopacity="1"
     inkscape:pageshadow="0"
     inkscape:pageopacity="0"
     inkscape:pagecheckerboard="0" />
  <inkscape:clipboard
     style="font-variation-settings:normal;opacity:1;vector-effect:none;fill:#000000;fill-opacity:1;stroke-width:1.33333333;stroke-linecap:butt;stroke-linejoin:miter;stroke-miterlimit:4;stroke-dasharray:none;stroke-dashoffset:0;stroke-opacity:1;-inkscape-stroke:none;stop-color:#000000;stop-opacity:1"
     min="426.16363,181.81998"
     max="694.40203,385.04724"
     geom-min="426.16363,181.81998"
     geom-max="694.40203,385.04724" />
  <g
     id="g2421"
     transform="matrix(1.3333333,0,0,1.3333333,-426.16362,-181.81998)">
    <path
       d="m 444.8405,245.4014 c 2.3185,-2.4286 9.1188,-4.9588 11.6948,-6.6627 1.7096,-1.1312 2.1026,-1.8626 4.1784,-2.883 -0.3404,9.0142 -0.2848,11.5855 1.5505,19.8621 l -4.912,1.8714 c -1.6844,0.8751 -2.6249,1.8533 -3.9328,2.7789 -1.1563,-1.4273 -1.3248,-5.1607 -3.2476,-8.5877 -2.0105,-3.583 -3.222,-3.8833 -5.3313,-6.379 z m -106.262,-6.8956 c 0.3441,-1.1255 -0.068,-0.4033 1.2135,-1.0101 2.1372,-1.0116 2.8789,-0.5856 5.0897,-3.7102 1.8729,-2.6471 2.4725,-5.1391 2.6924,-8.7572 l 3.8396,1.3511 c -0.2282,9.0982 -4.4633,11.1235 -12.8352,12.1264 z m 126.7876,6.3795 c 0.0453,8.2014 1.893,14.926 8.017,19.7494 1.961,1.5442 4.0816,2.3014 4.8192,4.4952 -7.4874,5.7846 -10.0186,-24.3244 -31.2447,6.9399 -2.148,3.1638 -4.7595,9.1198 -6.7921,11.6593 -3.0643,0.4249 -3.7128,-0.2663 -4.9367,-2.0929 1.1682,-2.0557 8.5125,-7.1253 10.9128,-16.5619 2.3767,-9.3418 -1.075,-16.1519 -7.2907,-18.7753 0.7948,-1.807 0.3689,-1.0699 2.1222,-2.4225 1.2826,-0.9895 1.4866,-1.1224 2.6497,-1.7349 5.2901,3.5568 6.4975,14.6278 6.6618,22.5438 1.9486,-1.1811 2.7336,-3.9292 6.1986,-7.3165 3.1607,-3.0895 4.8409,-2.9855 9.7467,-2.4971 -4.2294,-10.1779 -5.0701,-10.7125 -4.7038,-24.4806 2.0227,-1.297 3.9729,-3.293 4.0095,-6.4119 0.034,-2.9376 -0.4121,-0.784 0.9617,-3.514 2.5528,-5.0747 0.3837,-6.1291 4.7224,-11.8071 1.5267,-1.998 3.6623,-4.7605 5.341,-5.9159 -3.2832,5.6738 -5.7979,9.0143 -8.1112,16.5373 -1.9718,6.4129 -3.1251,14.1775 -3.0834,21.6057 z m 4.1723,-32.6973 c -0.1968,-2.7105 0.9251,-6.3223 1.5865,-8.9107 l 5.2973,-1.2888 z M 344.6705,194.8493 c 1.5592,-1.2667 4.5839,-2.233 6.7488,-3.0777 3.0618,-1.1946 4.6421,0.0875 7.4679,1.1682 4.8862,1.8683 9.8641,3.7463 14.6988,5.4348 9.9533,3.4764 19.5289,6.6813 29.646,10.0361 6.8605,2.2752 57.5399,18.4735 59.3052,19.9683 -1.6767,4.879 -8.4888,8.4651 -12.8275,10.73 -4.7487,2.4792 -11.5124,7.0053 -14.1152,10.1191 -5.4302,6.4969 -3.2884,9.4021 -14.5494,4.8316 l -84.5646,-35.6025 c -4.5437,-1.9538 -13.5095,-4.8151 -15.1588,-8.5614 -1.3764,-3.1262 1.6735,-6.3069 3.5026,-7.5508 2.2876,-1.5551 5.8557,0.9555 8.5908,2.1757 l 66.9802,28.9052 c 6.532,2.7393 29.7546,12.1115 35.5077,13.1469 -3.7627,-4.0137 -44.7011,-19.9611 -53.4568,-23.5199 -9.1862,-3.7334 -18.0495,-7.2201 -27.2945,-10.885 -4.5771,-1.8142 -9.1888,-3.6176 -13.6892,-5.4019 -2.0748,-0.8226 -12.318,-4.4324 -13.9504,-5.7263 l 15.6075,-5.6053 c 1.8193,-0.0489 12.5374,4.6915 15.3195,5.7212 17.7848,6.584 77.2672,31.3581 93.4881,34.4811 -3.8879,-3.9894 -43.9496,-18.0057 -52.6847,-21.1251 -9.0435,-3.2302 -18.2612,-6.6716 -27.3645,-9.807 -3.9565,-1.3624 -25.5751,-8.5954 -27.2075,-9.8553 z m 67.8389,-12.7781 c 24.3739,6.6577 32.4939,8.5357 57.3478,13.3555 l -5.9251,27.9605 c -3.922,-0.6207 -9.9981,-3.1606 -13.9839,-4.4716 l -40.7911,-13.3544 c -8.8318,-2.9334 -18.2509,-5.8628 -27.3465,-8.7865 -8.2426,-2.6497 -19.3939,-5.3678 -26.9453,-8.5233 l 1.6174,-6.4794 c 4.3964,0.991 9.2502,3.1019 13.6821,4.5668 14.8322,4.9022 89.561,30.7313 93.8904,28.6281 -6.2147,-3.8503 -46.1507,-15.5142 -53.3167,-17.6096 -18.2417,-5.3349 -37,-11.6072 -54.4165,-16.2045 l 0.5028,-14.3635 z m 58.9895,19.6057 c 0.5377,-4.0497 1.6745,-8.649 2.525,-12.5473 1.2836,-5.8814 0.4847,-4.266 2.0552,-5.1283 2.1727,-1.193 26.1834,-7.863 27.9507,-8.1406 -1.3567,2.3236 -3.8627,3.5449 -6.9012,8.0355 -1.106,1.635 -1.8132,3.07 -2.455,4.7848 -0.7356,1.9671 -0.6547,3.599 -2.6378,4.5534 -2.9469,1.4181 -7.3891,2.3788 -10.6244,3.8221 -3.1622,1.4103 -6.805,3.4784 -9.9125,4.6204 z m 3.259,-25.1914 c -1.6808,5.373 -3.7613,12.4314 -4.5607,18.0866 -4.299,-0.6413 -10.1412,-2.7377 -14.5762,-3.9811 l -41.8841,-10.7002 c -14.8462,-3.5093 -44.3159,-11.346 -56.9276,-13.6712 -0.0211,-5.051 -0.1468,-12.0615 2.2515,-15.8681 3.9477,0.2509 10.9819,2.2217 15.0053,3.1859 15.6044,3.7401 96.1744,23.9299 98.6721,23.4627 -7.9052,-4.7487 -44.1604,-13.1247 -55.0444,-15.5225 -19.1817,-4.2253 -39.1906,-8.4058 -58.4378,-11.739 1.9059,-7.8939 7.1542,-8.0592 15.7172,-6.79 5.9581,0.8828 46.4123,11.8029 54.1501,13.8066 12.0167,3.1117 24.1813,6.311 36.1779,9.2486 9.2115,2.2551 12.538,0.6331 9.4567,10.4817 z m 33.2979,-19.2904 c 2.9562,1.6349 12.2954,2.7038 11.6907,8.1174 -0.4775,4.2769 -7.2706,6.3007 -11.9601,7.5818 l -31.4266,8.1751 c 0.8535,-3.8756 4.2836,-10.1804 1.5479,-13.8242 -1.7251,-2.2979 -8.511,-3.2874 -12.3047,-4.2794 -23.7938,-6.2229 -55.6294,-14.3929 -78.8593,-19.5748 l 1.4417,-0.887 c 0.1242,-0.0556 0.2602,-0.0999 0.3884,-0.1493 8.272,-3.1895 20.2027,-5.0351 29.0587,-3.463 10.3571,1.8383 85.2152,18.2607 90.4233,18.3034 z m 0,0 c -2.3699,-1.3284 -61.3172,-13.7196 -69.5031,-15.5333 -7.0599,-1.5648 -16.9112,-4.3819 -23.8511,-5.0541 -18.0505,-1.7477 -29.3631,6.5505 -36.9376,5.5404 -11.1354,-1.4855 -20.6997,-4.4942 -21.6789,19.1601 -0.3286,7.9371 0.4533,12.9804 -0.6408,21.0819 -1.0111,7.4869 -5.902,4.8362 15.1135,12.3371 6.021,2.1495 11.9539,4.3031 17.3201,6.1703 -3.6252,-0.5671 -9.1934,-2.5523 -13.1174,-3.7772 -4.2898,-1.3387 -8.7402,-2.7475 -13.2947,-4.1702 -7.2201,-2.2556 -6.3347,-3.0911 -13.3853,-0.2885 -5.7593,2.2897 -21.0005,6.7792 -24.8025,9.7204 -14.6648,11.3456 19.2585,18.1001 23.3633,22.3857 -3.0355,10.9319 -11.0566,9.1934 -11.3708,12.8959 1.1425,5.578 6.6437,2.6307 10.7336,0.8675 10.0872,-4.348 2.3442,-11.0916 7.3196,-10.9628 l 64.1172,27.518 c 10.9907,4.4453 14.176,6.2414 19.8405,-4.1388 8.0567,3.0576 9.7658,20.061 -0.8833,31.0727 -1.106,1.1441 -2.2639,1.6952 -2.386,4.0667 3.003,3.99 5.834,3.4162 8.2014,-0.803 3.6247,-6.4614 14.0091,-23.4179 22.5494,-22.1322 2.5055,0.3776 5.0753,5.7706 9.7349,8.1251 4.3077,2.1763 9.6843,-1.6024 2.0088,-7.1861 -9.1466,-6.653 -9.0693,-14.1224 -7.9155,-25.6168 1.4593,-14.5361 6.056,-27.3053 15.7172,-36.9634 1.2635,-1.2635 2.9773,-3.0839 4.6307,-4.1403 2.1243,-1.3578 4.349,-1.6767 6.2456,-3.0515 2.2386,-6.3728 1.6194,-7.7388 5.6758,-12.8779 5.8222,-7.3757 2.4777,-5.1242 10.9216,-8.1618 17.2991,-6.2218 6.1179,-15.6095 -3.7262,-16.0839 z"
       style="fill:#000000;fill-opacity:1;fill-rule:evenodd"
       id="path2" />
  </g>
</svg>
