<?xml version="1.0" encoding="UTF-8" standalone="no"?>
<svg
   version="1.1"
   width="769.65381pt"
   height="279.2731pt"
   id="svg15"
   viewBox="0 0 769.65381 279.2731"
   xmlns="http://www.w3.org/2000/svg"
   xmlns:svg="http://www.w3.org/2000/svg">
  <defs
     id="defs19" />
  <path
     d="m 408.7375,109.03641 c 2.3185,-2.4286 9.1188,-4.9588 11.6948,-6.6627 1.7096,-1.1312 2.1026,-1.8626 4.1784,-2.882997 -0.3404,9.014197 -0.2848,11.585497 1.5505,19.862097 l -4.912,1.8714 c -1.6844,0.8751 -2.6249,1.8533 -3.9328,2.7789 -1.1563,-1.4273 -1.3248,-5.1607 -3.2476,-8.5877 -2.0105,-3.583 -3.222,-3.8833 -5.3313,-6.379 z m -106.262,-6.8956 c 0.3441,-1.1255 -0.068,-0.4033 1.2135,-1.0101 2.1372,-1.0116 2.8789,-0.5856 5.0897,-3.710197 1.8729,-2.6471 2.4725,-5.1391 2.6924,-8.7572 l 3.8396,1.3511 c -0.2282,9.0982 -4.4633,11.123497 -12.8352,12.126397 z m 126.7876,6.3795 c 0.0453,8.2014 1.893,14.926 8.017,19.7494 1.961,1.5442 4.0816,2.3014 4.8192,4.4952 -7.4874,5.7846 -10.0186,-24.3244 -31.2447,6.9399 -2.148,3.1638 -4.7595,9.1198 -6.7921,11.6593 -3.0643,0.4249 -3.7128,-0.2663 -4.9367,-2.0929 1.1682,-2.0557 8.5125,-7.1253 10.9128,-16.5619 2.3767,-9.3418 -1.075,-16.1519 -7.2907,-18.7753 0.7948,-1.807 0.3689,-1.0699 2.1222,-2.4225 1.2826,-0.9895 1.4866,-1.1224 2.6497,-1.7349 5.2901,3.5568 6.4975,14.6278 6.6618,22.5438 1.9486,-1.1811 2.7336,-3.9292 6.1986,-7.3165 3.1607,-3.0895 4.8409,-2.9855 9.7467,-2.4971 -4.2294,-10.1779 -5.0701,-10.7125 -4.7038,-24.480597 2.0227,-1.297 3.9729,-3.293 4.0095,-6.4119 0.034,-2.9376 -0.4121,-0.784 0.9617,-3.514 2.5528,-5.0747 0.3837,-6.1291 4.7224,-11.8071 1.5267,-1.998 3.6623,-4.7605 5.341,-5.9159 -3.2832,5.6738 -5.7979,9.0143 -8.1112,16.5373 -1.9718,6.4129 -3.1251,14.177497 -3.0834,21.605697 z m 4.1723,-32.697297 c -0.1968,-2.7105 0.9251,-6.3223 1.5865,-8.9107 l 5.2973,-1.2888 z m -124.8679,-17.3387 c 1.5592,-1.2667 4.5839,-2.233 6.7488,-3.0777 3.0618,-1.1946 4.6421,0.0875 7.4679,1.1682 4.8862,1.8683 9.8641,3.7463 14.6988,5.4348 9.9533,3.4764 19.5289,6.6813 29.646,10.0361 6.8605,2.2752 57.5399,18.4735 59.3052,19.9683 -1.6767,4.879 -8.4888,8.465097 -12.8275,10.729997 -4.7487,2.4792 -11.5124,7.0053 -14.1152,10.1191 -5.4302,6.4969 -3.2884,9.4021 -14.5494,4.8316 L 300.3775,82.092213 c -4.5437,-1.9538 -13.5095,-4.8151 -15.1588,-8.5614 -1.3764,-3.1262 1.6735,-6.3069 3.5026,-7.5508 2.2876,-1.5551 5.8557,0.9555 8.5908,2.1757 l 66.9802,28.9052 c 6.532,2.7393 29.7546,12.111497 35.5077,13.146897 -3.7627,-4.0137 -44.7011,-19.961097 -53.4568,-23.519897 -9.1862,-3.7334 -18.0495,-7.2201 -27.2945,-10.885 -4.5771,-1.8142 -9.1888,-3.6176 -13.6892,-5.4019 -2.0748,-0.8226 -12.318,-4.4324 -13.9504,-5.7263 l 15.6075,-5.6053 c 1.8193,-0.0489 12.5374,4.6915 15.3195,5.7212 17.7848,6.584 77.2672,31.3581 93.4881,34.4811 -3.8879,-3.9894 -43.9496,-18.0057 -52.6847,-21.1251 -9.0435,-3.2302 -18.2612,-6.6716 -27.3645,-9.807 -3.9565,-1.3624 -25.5751,-8.5954 -27.2075,-9.8553 z m 67.8389,-12.7781 c 24.3739,6.6577 32.4939,8.5357 57.3478,13.3555 l -5.9251,27.9605 c -3.922,-0.6207 -9.9981,-3.1606 -13.9839,-4.4716 l -40.7911,-13.3544 c -8.8318,-2.9334 -18.2509,-5.8628 -27.3465,-8.7865 -8.2426,-2.6497 -19.3939,-5.3678 -26.9453,-8.5233 l 1.6174,-6.4794 c 4.3964,0.991 9.2502,3.1019 13.6821,4.5668 14.8322,4.9022 89.561,30.7313 93.8904,28.6281 -6.2147,-3.8503 -46.1507,-15.5142 -53.3167,-17.6096 -18.2417,-5.3349 -37,-11.6072 -54.4165,-16.2045 l 0.5028,-14.3635 z m 58.9895,19.6057 c 0.5377,-4.0497 1.6745,-8.649 2.525,-12.5473 1.2836,-5.8814 0.4847,-4.266 2.0552,-5.1283 2.1727,-1.193 26.1834,-7.863 27.9507,-8.1406 -1.3567,2.3236 -3.8627,3.5449 -6.9012,8.0355 -1.106,1.635 -1.8132,3.07 -2.455,4.7848 -0.7356,1.9671 -0.6547,3.599 -2.6378,4.5534 -2.9469,1.4181 -7.3891,2.3788 -10.6244,3.8221 -3.1622,1.4103 -6.805,3.4784 -9.9125,4.6204 z m 3.259,-25.1914 c -1.6808,5.373 -3.7613,12.4314 -4.5607,18.0866 -4.299,-0.6413 -10.1412,-2.7377 -14.5762,-3.9811 l -41.8841,-10.7002 c -14.8462,-3.5093 -44.3159,-11.346 -56.9276,-13.6712 -0.0211,-5.051 -0.1468,-12.0615 2.2515,-15.8681 3.9477,0.2509 10.9819,2.2217 15.0053,3.1859 15.6044,3.7401 96.1744,23.9299 98.6721,23.4627 -7.9052,-4.7487 -44.1604,-13.1247 -55.0444,-15.5225 -19.1817,-4.2253 -39.1906,-8.4058 -58.4378,-11.739 1.9059,-7.8939004 7.1542,-8.0592004 15.7172,-6.7900004 5.9581,0.8828 46.4123,11.8029004 54.1501,13.8066004 12.0167,3.1117 24.1813,6.311 36.1779,9.2486 9.2115,2.2551 12.538,0.6331 9.4567,10.4817 z m 33.2979,-19.2904 c 2.9562,1.6349 12.2954,2.7038 11.6907,8.1174 -0.4775,4.2769 -7.2706,6.3007 -11.9601,7.5818 l -31.4266,8.1751 c 0.8535,-3.8756 4.2836,-10.1804 1.5479,-13.8242 -1.7251,-2.2979 -8.511,-3.2874 -12.3047,-4.2794 -23.7938,-6.2229 -55.6294,-14.3929 -78.8593,-19.5748004 l 1.4417,-0.887 c 0.1242,-0.0556 0.2602,-0.0999 0.3884,-0.1493 8.272,-3.1895 20.2027,-5.0351 29.0587,-3.463 10.3571,1.8383 85.2152,18.2607004 90.4233,18.3034004 z m 0,0 c -2.3699,-1.3284 -61.3172,-13.7196004 -69.5031,-15.5333004 -7.0599,-1.5648 -16.9112,-4.3819 -23.8511,-5.0541 -18.0505,-1.7477 -29.3631,6.5505 -36.9376,5.5404 -11.1354,-1.4855 -20.6997,-4.4942 -21.6789,19.1601004 -0.3286,7.9371 0.4533,12.9804 -0.6408,21.0819 -1.0111,7.4869 -5.902,4.8362 15.1135,12.3371 6.021,2.1495 11.9539,4.3031 17.3201,6.1703 -3.6252,-0.5671 -9.1934,-2.5523 -13.1174,-3.7772 -4.2898,-1.3387 -8.7402,-2.7475 -13.2947,-4.1702 -7.2201,-2.2556 -6.3347,-3.0911 -13.3853,-0.2885 -5.7593,2.2897 -21.0005,6.7792 -24.8025,9.7204 -14.6648,11.3456 19.2585,18.1001 23.3633,22.3857 -3.0355,10.9319 -11.0566,9.1934 -11.3708,12.895897 1.1425,5.578 6.6437,2.6307 10.7336,0.8675 10.0872,-4.347997 2.3442,-11.091597 7.3196,-10.962797 l 64.1172,27.517997 c 10.9907,4.4453 14.176,6.2414 19.8405,-4.1388 8.0567,3.0576 9.7658,20.061 -0.8833,31.0727 -1.106,1.1441 -2.2639,1.6952 -2.386,4.0667 3.003,3.99 5.834,3.4162 8.2014,-0.803 3.6247,-6.4614 14.0091,-23.4179 22.5494,-22.1322 2.5055,0.3776 5.0753,5.7706 9.7349,8.1251 4.3077,2.1763 9.6843,-1.6024 2.0088,-7.1861 -9.1466,-6.653 -9.0693,-14.1224 -7.9155,-25.6168 1.4593,-14.536097 6.056,-27.305297 15.7172,-36.963397 1.2635,-1.2635 2.9773,-3.0839 4.6307,-4.1403 2.1243,-1.3578 4.349,-1.6767 6.2456,-3.0515 2.2386,-6.3728 1.6194,-7.7388 5.6758,-12.8779 5.8222,-7.3757 2.4777,-5.1242 10.9216,-8.1618 17.2991,-6.2218 6.1179,-15.6095 -3.7262,-16.0839 z"
     style="fill:#000000;fill-opacity:1;fill-rule:evenodd"
     id="path2" />
  <path
     d="m 546.1042,84.153113 54.2578,0.9648 c 18.7737,0.3863 37.9096,0.12 56.7179,0.1818 l 97.9679,-0.6624 c 2.6054,-0.0304 12.2974,-0.6696 13.1618,-0.5578 -18.2664,0.0597 -36.6507,-0.6506 -54.9269,-0.646 -18.747,0.004 -37.4672,-0.2215 -56.2028,-0.2452 -18.5549,-0.0237 -37.1159,0.2493 -55.6867,0.2452 -14.2002,-0.004 -42.0901,-0.1483 -55.289,0.7196 z"
     style="fill:#000000;fill-opacity:1;fill-rule:evenodd"
     id="path4" />
  <path
     d="m 0,84.097013 26.4811,0.6974 c 9.0024,-0.008 18.6651,0.1308 27.8385,0.3312 18.7062,0.4095 37.9781,0.1813 56.7179,0.1777 18.6089,-0.004 37.6057,0.1705 56.2028,-0.1566 l 54.8594,-1.0353 C 148.2991,82.302413 73.7449,83.779713 0,84.097013 Z"
     style="fill:#000000;fill-opacity:1;fill-rule:evenodd"
     id="path6" />
  <path
     d="m 89.2501,180.09171 0.8711,30.9308 -1.5973,0.1452 c -3.2672,-10.5282 -7.4543,-18.3697 -12.5609,-23.5007 -5.1066,-5.1551 -11.2785,-7.7204 -18.5148,-7.7204 -5.6151,0 -10.4555,1.1375 -14.4972,3.4367 -4.0419,2.2992 -7.8174,6.0265 -11.3026,11.1816 -7.0911,10.5522 -10.6489,22.6048 -10.6489,36.1825 0,6.4862 0.847,12.6094 2.5654,18.3453 1.6942,5.7603 4.1627,10.8184 7.4301,15.2232 6.3411,8.5192 14.0857,12.7788 23.2101,12.7788 3.5819,0 6.9701,-0.7503 10.1407,-2.2748 3.1705,-1.5006 5.7603,-3.5821 7.7933,-6.22 2.783,-3.6789 4.187,-8.0595 4.187,-13.1179 0,-4.671 -1.2585,-8.0351 -3.7757,-10.1166 -2.5413,-2.0812 -6.6799,-3.1221 -12.4883,-3.1221 v -1.5973 h 45.1615 v 1.5973 c -4.1385,0.3872 -7.067,0.9683 -8.7372,1.7428 -1.6699,0.7744 -2.9041,2.1055 -3.7029,3.9934 -0.8954,2.0812 -1.3552,6.2198 -1.3552,12.3914 0,1.6942 0.0966,4.3565 0.2905,7.9384 l 0.1452,1.6217 c -1.8153,-0.6537 -3.1221,-0.9924 -3.9694,-0.9924 -1.0406,0 -2.3717,0.5567 -3.9691,1.6217 -4.1145,2.8074 -8.9064,4.9615 -14.3277,6.4618 -5.4456,1.5007 -11.1815,2.251 -17.2321,2.251 -8.3256,0 -15.8284,-1.4281 -22.5082,-4.2596 -6.7039,-2.8318 -12.1255,-6.8978 -16.2882,-12.198 -3.122,-3.9694 -5.5182,-8.6888 -7.188,-14.1585 -1.6699,-5.4938 -2.5172,-11.3023 -2.5172,-17.4498 0,-8.4467 1.5006,-16.3125 4.5258,-23.5973 3.0254,-7.285 7.285,-13.2871 12.7548,-18.0065 4.4773,-3.824 9.6567,-6.7768 15.5137,-8.858 5.8569,-2.0815 12.0285,-3.1224 18.5389,-3.1224 3.7998,0 7.285,0.3631 10.5281,1.065 3.2431,0.7019 6.6799,1.8635 10.3102,3.4611 l 4.1627,1.9361 c 1.0408,0.4113 1.9848,0.6293 2.8559,0.6293 1.8878,0 3.3157,-1.5489 4.3081,-4.6228 z m 46.3445,49.5182 v 25.0976 c 0,4.8405 0.2662,8.4226 0.8229,10.7459 0.5567,2.3476 1.5489,4.284 3.0251,5.7844 1.283,1.3311 2.7834,2.2992 4.4776,2.9528 1.694,0.6293 3.8965,1.0165 6.6799,1.1617 v 1.5973 h -45.2826 v -1.5973 c 2.7348,-0.1452 4.9374,-0.5324 6.6313,-1.1617 1.6699,-0.6536 3.1465,-1.6217 4.4292,-2.9528 1.5004,-1.5248 2.5169,-3.4368 3.0495,-5.76 0.5082,-2.3236 0.7744,-5.9054 0.7744,-10.7944 v -52.3255 c 0,-4.8889 -0.2662,-8.4708 -0.7744,-10.7941 -0.5326,-2.3235 -1.5491,-4.2355 -3.0495,-5.7603 -1.2827,-1.3796 -2.7593,-2.3717 -4.4776,-2.9769 -1.694,-0.6049 -3.8965,-0.9921 -6.5829,-1.1376 v -1.5973 h 34.198 c 5.7115,0 9.4629,0.0244 11.2782,0.0726 7.3332,0.339 13.0691,1.3311 17.2321,2.9769 4.6953,1.8879 8.3256,4.7194 10.891,8.4952 2.5897,3.7514 3.8724,8.132 3.8724,13.0935 0,7.3817 -2.7833,13.2868 -8.3741,17.7401 -1.694,1.3311 -3.5819,2.4205 -5.639,3.2675 -2.0574,0.8469 -4.8163,1.6698 -8.2531,2.4202 2.7834,1.186 4.8646,2.4202 6.1957,3.6788 1.0891,0.9921 2.0574,2.2507 2.9529,3.727 0.8711,1.5006 2.2022,4.1386 3.9691,7.9143 4.2111,8.6644 7.3817,15.0055 9.5357,18.9986 2.154,3.9935 3.9691,6.8979 5.4213,8.6888 1.186,1.4763 2.3235,2.4928 3.4367,3.0495 1.1134,0.5808 2.6382,0.944 4.5743,1.1376 v 1.5973 H 173.205 c -1.1858,-2.5897 -1.9361,-4.2596 -2.2751,-4.9615 l -4.9615,-11.2782 c -3.001,-6.7524 -6.0021,-12.7304 -9.0272,-17.9099 -3.0254,-5.155 -5.8088,-8.6884 -8.3256,-10.5763 -1.283,-0.9439 -2.6623,-1.6217 -4.1145,-2.0089 -1.4763,-0.4113 -3.2916,-0.6049 -5.4213,-0.6049 z m 0,-1.5974 h 2.7108 c 5.9051,0 10.1406,-0.339 12.6819,-0.9924 2.5413,-0.6777 4.9374,-2.033 7.164,-4.1145 5.0097,-4.7435 7.5027,-10.6248 7.5027,-17.6193 0,-3.7513 -0.7262,-7.2606 -2.1784,-10.5522 -1.4522,-3.2913 -3.4608,-6.0021 -6.0262,-8.1318 -2.0089,-1.6217 -4.3806,-2.7348 -7.1399,-3.3641 -2.7589,-0.6537 -6.7039,-0.9683 -11.7864,-0.9683 h -2.9285 z m 99.1783,-47.9208 v 1.5973 c -2.7108,0.1455 -4.9133,0.5327 -6.6316,1.1376 -1.694,0.6052 -3.1947,1.5973 -4.4533,2.9769 -1.5729,1.5974 -2.6138,3.5819 -3.0977,5.9539 -0.5082,2.3718 -0.7503,6.4378 -0.7503,12.1978 v 40.1519 c 0,6.5344 0.2421,11.2541 0.7503,14.1582 0.4839,2.9044 1.5004,5.5908 3.0252,8.0354 2.275,3.7513 5.0825,6.4618 8.3982,8.1317 3.34,1.6702 7.5512,2.5172 12.6337,2.5172 4.913,0 9.6083,-0.7503 14.0856,-2.2266 4.4776,-1.5007 8.2046,-3.5578 11.206,-6.2201 1.8394,-1.6458 3.1946,-3.4367 4.066,-5.3972 0.8954,-1.936 1.4763,-4.3806 1.7424,-7.3573 0.1936,-1.9363 0.2903,-6.5347 0.2903,-13.7713 v -39.6433 c 0,-4.8648 -0.2662,-8.4708 -0.8226,-10.7944 -0.5327,-2.2991 -1.5492,-4.2111 -3.0254,-5.7359 -1.3071,-1.3796 -2.8075,-2.3717 -4.5017,-2.9769 -1.6699,-0.6049 -3.8724,-0.9921 -6.5588,-1.1376 v -1.5973 h 32.6973 v 1.5973 c -2.6864,0.1455 -4.8645,0.5083 -6.5588,1.1376 -1.6699,0.6052 -3.1705,1.5973 -4.5017,2.9769 -1.4522,1.5007 -2.4687,3.4368 -3.001,5.7844 -0.5568,2.3236 -0.8229,5.9054 -0.8229,10.7459 v 44.75 c 0,6.6072 -0.5083,11.4961 -1.5248,14.6426 -1.0165,3.1462 -3.0251,6.0021 -6.0505,8.6159 -6.8976,5.9539 -16.748,8.9308 -29.5753,8.9308 -13.3597,0 -23.2101,-2.8077 -29.5512,-8.4466 -4.1142,-3.5822 -6.5588,-8.3257 -7.3573,-14.1826 -0.2906,-2.0815 -0.4357,-5.8329 -0.4357,-11.2785 v -43.0316 c 0,-4.8889 -0.2662,-8.4708 -0.7744,-10.7944 -0.5327,-2.2991 -1.5492,-4.2352 -3.0495,-5.7359 -1.2827,-1.3796 -2.7593,-2.3717 -4.4292,-2.9769 -1.694,-0.6293 -3.8965,-0.9921 -6.6313,-1.1376 v -1.5973 z m 98.2828,49.0825 v 25.5092 c 0,4.8164 0.2662,8.4223 0.8229,10.7459 0.5324,2.3477 1.5489,4.2837 3.0011,5.8085 1.2827,1.3311 2.7589,2.2992 4.4532,2.9528 1.6699,0.6293 3.8724,1.0165 6.6314,1.1617 v 1.5973 h -45.1857 v -1.5973 c 2.7349,-0.1452 4.9374,-0.5324 6.6314,-1.1617 1.6699,-0.6536 3.1464,-1.6217 4.4291,-2.9528 1.5004,-1.5248 2.5169,-3.4368 3.0495,-5.76 0.5083,-2.3236 0.7744,-5.9054 0.7744,-10.7944 v -52.3255 c 0,-4.066 -0.1695,-7.2122 -0.5323,-9.4147 -0.3631,-2.2023 -0.9683,-3.9932 -1.8153,-5.3487 -1.2101,-1.912 -2.7833,-3.3157 -4.6709,-4.2353 -1.8879,-0.9198 -4.3566,-1.4765 -7.3817,-1.6702 h -0.4842 v -1.5973 h 42.6929 c 7.4543,0 12.9484,0.3872 16.4818,1.1376 3.5336,0.7503 6.7767,2.2751 9.7052,4.5258 6.7039,5.1069 10.044,11.9318 10.044,20.4267 0,8.6647 -3.4126,15.0055 -10.2135,19.023 -3.5334,2.0815 -7.8415,3.3401 -12.8999,3.7514 -1.6214,0.1454 -5.4938,0.218 -11.6413,0.218 z m 0,-2.1782 h 6.9461 c 4.6953,0 8.3015,-0.339 10.8428,-1.0408 2.5168,-0.6775 4.7919,-1.9361 6.7765,-3.7996 4.6227,-4.2114 6.946,-9.8263 6.946,-16.8449 0,-3.8968 -0.6775,-7.4543 -2.033,-10.6974 -1.3312,-3.2431 -3.2672,-5.9054 -5.7844,-7.9384 -2.88,-2.4202 -6.3167,-3.8239 -10.2858,-4.2596 -1.0891,-0.097 -3.5578,-0.1454 -7.4543,-0.1454 h -5.9539 z m 81.0023,-1.7427 h 50.3892 v -22.847 c 0,-4.8889 -0.2661,-8.4948 -0.8229,-10.8184 -0.5323,-2.3235 -1.5488,-4.2596 -3.001,-5.7603 -1.3312,-1.3793 -2.8318,-2.3717 -4.5258,-3.001 -1.6699,-0.6049 -3.8724,-0.9921 -6.6314,-1.1376 v -1.5973 h 45.2583 v 1.5973 c -2.6864,0.1455 -4.8646,0.5327 -6.5588,1.1376 -1.6699,0.6052 -3.1706,1.5973 -4.5017,2.9769 -1.4522,1.5248 -2.4687,3.4368 -3.0011,5.7844 -0.5567,2.3477 -0.8229,5.9295 -0.8229,10.77 v 52.3255 c 0,4.8405 0.2662,8.3982 0.8229,10.7218 0.5324,2.3233 1.5489,4.2593 3.0011,5.8326 1.3311,1.3311 2.8318,2.2992 4.5017,2.9528 1.6942,0.6293 3.8724,1.0165 6.5588,1.1617 v 1.5973 h -45.2583 v -1.5973 c 2.759,-0.1452 4.9615,-0.5324 6.6314,-1.1617 1.694,-0.6536 3.1946,-1.6217 4.5258,-2.9528 1.4522,-1.5004 2.4687,-3.4124 3.001,-5.7359 0.5568,-2.3236 0.8229,-5.9055 0.8229,-10.77 v -26.1385 H 414.058 v 26.1385 c 0,4.8161 0.2662,8.3982 0.8229,10.7459 0.5324,2.3232 1.5489,4.2596 3.001,5.76 1.2827,1.3311 2.759,2.2992 4.4533,2.9528 1.6699,0.6293 3.8724,1.0165 6.6313,1.1617 v 1.5973 h -45.1856 v -1.5973 c 2.7348,-0.1452 4.9374,-0.5324 6.6313,-1.1617 1.6699,-0.6536 3.1465,-1.6217 4.4292,-2.9528 1.5004,-1.5248 2.5169,-3.4368 3.0495,-5.76 0.5082,-2.3236 0.7744,-5.9054 0.7744,-10.7944 v -52.3255 c 0,-4.8889 -0.2662,-8.4708 -0.7744,-10.7941 -0.5326,-2.3235 -1.5491,-4.2355 -3.0495,-5.7603 -1.2827,-1.3796 -2.7593,-2.3717 -4.4776,-2.9769 -1.694,-0.6049 -3.8965,-0.9921 -6.5829,-1.1376 v -1.5973 h 45.1856 v 1.5973 c -2.7104,0.1455 -4.8889,0.5327 -6.5588,1.1376 -1.6939,0.6293 -3.1946,1.6217 -4.5258,3.001 -1.4521,1.5007 -2.4686,3.4368 -3.001,5.7844 -0.5567,2.3477 -0.8229,5.9539 -0.8229,10.7943 z m 165.42,-45.1616 1.1619,23.4522 -1.5973,0.0725 c -0.6052,-3.9934 -1.6217,-7.2847 -3.0495,-9.8988 -1.4281,-2.5895 -3.4852,-4.913 -6.1716,-6.8976 -2.2266,-1.6458 -4.8648,-2.8315 -7.8899,-3.5093 -3.0255,-0.7018 -7.0674,-1.0408 -12.0771,-1.0408 h -16.264 v 42.6931 h 4.2837 c 4.3322,0 7.5753,-0.2905 9.7537,-0.8472 2.2023,-0.5809 3.9691,-1.573 5.3487,-3.0496 1.3312,-1.3552 2.3233,-2.9766 2.977,-4.8404 0.629,-1.8635 1.1616,-4.6225 1.5973,-8.2528 l 1.5973,0.0726 -0.2905,37.9735 h -1.5974 c -0.4356,-3.6547 -1.0649,-6.5832 -1.8878,-8.8098 -0.8229,-2.2266 -1.9846,-4.1142 -3.4609,-5.6634 -1.4278,-1.5247 -3.2672,-2.6379 -5.5666,-3.3398 -2.2748,-0.7018 -5.1792,-1.0649 -8.6885,-1.0649 h -4.066 v 16.2397 c 0,6.4621 0.1695,11.1815 0.5082,14.1341 0.3147,2.9528 0.9681,5.4215 1.912,7.406 1.6214,3.3883 4.0901,5.8811 7.4058,7.4784 3.316,1.5732 7.6963,2.372 13.1179,2.372 5.6633,0 10.4068,-0.7262 14.2308,-2.154 3.8242,-1.4522 6.9219,-3.6788 9.3421,-6.7042 1.6943,-2.0328 3.0739,-4.3563 4.1386,-6.946 1.0409,-2.5895 2.033,-6.0262 2.9285,-10.2858 l 1.5973,0.0725 -0.8711,28.1957 h -84.6598 v -1.5973 c 2.7105,-0.1452 4.913,-0.5324 6.5829,-1.1376 1.6942,-0.6052 3.1949,-1.5973 4.5258,-2.9769 1.4765,-1.5248 2.493,-3.4608 3.0254,-5.7844 0.5567,-2.3477 0.8229,-5.9295 0.8229,-10.77 v -52.3255 c 0,-4.8405 -0.2662,-8.4223 -0.8229,-10.77 -0.5324,-2.3476 -1.5489,-4.2596 -3.0254,-5.7844 -1.2827,-1.3796 -2.759,-2.3717 -4.4533,-2.9769 -1.6698,-0.6049 -3.8965,-0.9921 -6.6554,-1.1376 v -1.5973 z m 60.8658,0 v 1.5973 c -2.6864,0.1455 -4.8648,0.5327 -6.5588,1.1376 -1.6699,0.6052 -3.1706,1.5973 -4.5017,2.9769 -1.8394,1.8879 -2.9769,4.5258 -3.3883,7.89 -0.2905,2.5172 -0.4356,5.3972 -0.4356,8.6644 v 52.3255 c 0,3.945 0.1936,7.043 0.5567,9.3178 0.3872,2.251 0.9921,4.0904 1.8635,5.4456 1.2101,1.912 2.8074,3.3157 4.7438,4.2356 1.936,0.9195 4.5014,1.4763 7.7204,1.6699 v 1.5973 h -45.1616 v -1.5973 c 2.7349,-0.1452 4.9374,-0.5324 6.6314,-1.1617 1.6699,-0.6536 3.1465,-1.6217 4.4291,-2.9528 1.5004,-1.5248 2.5169,-3.4368 3.0495,-5.76 0.5083,-2.3236 0.7745,-5.9054 0.7745,-10.7944 v -52.3255 c 0,-4.8889 -0.2662,-8.4708 -0.7745,-10.7941 -0.5326,-2.3235 -1.5491,-4.2355 -3.0495,-5.7603 -1.2826,-1.3796 -2.7592,-2.3717 -4.4776,-2.9769 -1.694,-0.6049 -3.8965,-0.9921 -6.5829,-1.1376 v -1.5973 z m 129.31,1.5973 c -2.6864,0.1455 -4.8404,0.5083 -6.4862,1.0891 -1.6214,0.6052 -3.1221,1.5732 -4.5017,2.9529 -1.0406,0.9924 -1.815,2.1055 -2.3474,3.3157 -0.5082,1.2101 -0.8714,2.7348 -1.065,4.5742 -0.3146,2.4687 -0.4841,5.3728 -0.4841,8.737 v 52.3255 c 0,4.889 0.2905,8.4949 0.8473,10.8669 0.5808,2.3718 1.5973,4.2597 3.0492,5.6875 2.6141,2.5171 6.2685,3.8724 10.9879,4.1145 v 1.5973 h -45.2341 v -1.5973 c 2.7348,-0.1452 4.9374,-0.5324 6.6313,-1.1617 1.6702,-0.6536 3.1706,-1.6217 4.5017,-2.9528 1.4522,-1.5248 2.4687,-3.4608 3.0011,-5.7844 0.5567,-2.3477 0.8229,-5.9295 0.8229,-10.77 v -63.4827 l -36.5454,85.7489 h -1.4766 l -36.3277,-84.4662 v 62.2 c 0,4.889 0.2665,8.4708 0.8229,10.7944 0.5327,2.3232 1.5492,4.2352 3.0011,5.76 1.3311,1.3796 2.8318,2.3717 4.5017,2.9769 1.6943,0.6052 3.8724,0.9924 6.5832,1.1376 v 1.5973 h -32.6974 v -1.5973 c 2.6864,-0.1452 4.8645,-0.5324 6.5588,-1.1376 1.6699,-0.6052 3.1706,-1.5973 4.5017,-2.9769 1.4519,-1.5248 2.4684,-3.4608 3.0011,-5.7844 0.5564,-2.3477 0.8229,-5.9295 0.8229,-10.77 v -52.3255 c 0,-2.1782 -0.0726,-4.2353 -0.218,-6.1957 -0.2421,-3.4852 -0.7745,-6.0506 -1.6214,-7.6479 -1.1861,-2.2266 -2.8075,-3.8724 -4.8649,-4.9374 -2.0571,-1.065 -4.7919,-1.6942 -8.1802,-1.8879 v -1.5973 h 30.761 l 30.6887,75.8744 31.826,-75.8744 h 29.1396 z"
     style="fill:#000000;fill-opacity:1;fill-rule:evenodd"
     id="path8" />
  <g
     id="Layer1000"
     transform="translate(-36.103,-136.36499)" />
</svg>
